<?xml version="1.0"?>
<svg xmlns="http://www.w3.org/2000/svg" height="512px" viewBox="0 -9 512.00021 512" width="512px"><path d="m256 128c-51.839844 0-93.867188 42.027344-93.867188 93.867188 0 51.839843 42.027344 93.867187 93.867188 93.867187s93.867188-42.027344 93.867188-93.867187c-.0625-51.816407-42.050782-93.804688-93.867188-93.867188zm0 170.667969c-42.414062 0-76.800781-34.386719-76.800781-76.800781 0-42.414063 34.386719-76.800782 76.800781-76.800782s76.800781 34.386719 76.800781 76.800782c-.046875 42.394531-34.40625 76.753906-76.800781 76.800781zm0 0" fill="#262626"/><path d="m217.308594 174.15625c-2.472656 1.5625-3.972656 4.285156-3.976563 7.210938v81c.011719 2.921874 1.515625 5.632812 3.988281 7.191406 2.472657 1.558594 5.566407 1.742187 8.207032.488281l85.332031-40.5c2.972656-1.414063 4.867187-4.414063 4.867187-7.707031 0-3.292969-1.894531-6.289063-4.867187-7.703125l-85.332031-40.5c-2.648438-1.246094-5.75-1.050781-8.21875.519531zm13.089844 20.703125 56.902343 27.007813-56.902343 27.007812zm0 0" fill="#262626"/><path d="m452.265625 51.199219h-384v-42.664063c0-4.714844-3.820313-8.535156-8.53125-8.535156-32.976563.0390625-59.6953125 26.757812-59.734375 59.734375v273.066406c.0390625 32.972657 26.757812 59.695313 59.734375 59.734375h384v93.863282c0 4.714843 3.820313 8.535156 8.53125 8.535156 27.933594-.046875 52.113281-19.421875 58.25-46.667969.929687-1.332031 1.445313-2.910156 1.484375-4.53125v-332.800781c.015625-6.777344-1.152344-13.503906-3.457031-19.875-8.375-23.902344-30.949219-39.890625-56.277344-39.859375zm-384 307.199219h17.066406v17.066406h-17.066406zm34.132813 0h17.066406v17.066406h-17.066406zm34.136718 0h17.066406v17.066406h-17.066406zm34.132813 0h17.066406v17.066406h-17.066406zm34.132812 0h17.066407v17.066406h-17.066407zm34.132813 0h17.066406v17.066406h-17.066406zm34.132812 0h17.066406v17.066406h-17.066406zm34.132813 0h17.066406v17.066406h-17.066406zm34.132812 0h17.066407v17.066406h-17.066407zm34.132813 0h17.070312v17.066406h-17.070312zm34.136718 0h17.066407v17.066406h-17.066407zm34.132813-17.066407h-384c-14.960937.019531-29.621094-4.171875-42.308594-12.097656 1.808594-22.042969 20.191407-39.03125 42.308594-39.101563 4.710937 0 8.53125-3.820312 8.53125-8.53125v-179.203124h375.417969c20.386718 1.78125 39.039062 12.191406 51.25 28.613281v224.632812c-15.5625-9.066406-33.191406-13.996093-51.199219-14.3125zm-34.132813-256v-17.066406h17.066407v17.066406zm-17.066406 0h-17.070312v-17.066406h17.070312zm-34.136718 0h-17.066407v-17.066406h17.066407zm-34.132813 0h-17.066406v-17.066406h17.066406zm-34.132813 0h-17.066406v-17.066406h17.066406zm-34.132812 0h-17.066406v-17.066406h17.066406zm-34.132812 0h-17.066407v-17.066406h17.066407zm-34.132813 0h-17.066406v-17.066406h17.066406zm-34.132813 0h-17.066406v-17.066406h17.066406zm-34.136718 0h-17.066406v-17.066406h17.066406zm373.003906 11.453125c1.050781 3.039063 1.738281 6.1875 2.054688 9.386719-14.171876-12.351563-32.027344-19.675781-50.789063-20.839844v-16.460937c.523437.054687 1.050781.054687 1.578125 0 2.292969-.417969 4.621094-.621094 6.953125-.605469 18.105469-.023437 34.242187 11.421875 40.203125 28.519531zm-407.136719-28.519531v17.066406h-17.066406v-17.066406zm-68.265625-8.53125c.027344-20.269531 14.28125-37.730469 34.132813-41.8125v255.828125c-12.972657 1.863281-24.972657 7.953125-34.132813 17.332031zm4.113282 291.046875c9.613281 3.804688 19.722656 6.207031 30.019531 7.125v16.707031c-13.207031-2.757812-24.335938-11.59375-30.019531-23.832031zm439.621093 126.230469v-83.625c19.882813 4.039062 34.175781 21.523437 34.175781 41.8125 0 20.292969-14.292968 37.777343-34.175781 41.8125zm-8.535156-101.546875h-8.53125v-17.066406c10.238281 0 38.527344 3.78125 51.199219 20.140624v14.941407c-11.207032-11.519531-26.59375-18.015625-42.667969-18.015625zm0 0" fill="#262626"/><path d="m110.933594 136.535156c0 4.710938-3.820313 8.53125-8.535156 8.53125-4.710938 0-8.53125-3.820312-8.53125-8.53125 0-4.714844 3.820312-8.535156 8.53125-8.535156 4.714843 0 8.535156 3.820312 8.535156 8.535156zm0 0" fill="#262626"/><path d="m110.933594 170.667969c0 4.710937-3.820313 8.53125-8.535156 8.53125-4.710938 0-8.53125-3.820313-8.53125-8.53125 0-4.714844 3.820312-8.535157 8.53125-8.535157 4.714843 0 8.535156 3.820313 8.535156 8.535157zm0 0" fill="#262626"/><path d="m110.933594 204.800781c0 4.710938-3.820313 8.53125-8.535156 8.53125-4.710938 0-8.53125-3.820312-8.53125-8.53125 0-4.714843 3.820312-8.535156 8.53125-8.535156 4.714843 0 8.535156 3.820313 8.535156 8.535156zm0 0" fill="#262626"/><path d="m110.933594 238.933594c0 4.710937-3.820313 8.53125-8.535156 8.53125-4.710938 0-8.53125-3.820313-8.53125-8.53125 0-4.714844 3.820312-8.535156 8.53125-8.535156 4.714843 0 8.535156 3.820312 8.535156 8.535156zm0 0" fill="#262626"/><path d="m110.933594 273.066406c0 4.714844-3.820313 8.535156-8.535156 8.535156-4.710938 0-8.53125-3.820312-8.53125-8.535156 0-4.710937 3.820312-8.53125 8.53125-8.53125 4.714843 0 8.535156 3.820313 8.535156 8.53125zm0 0" fill="#262626"/><path d="m110.933594 307.199219c0 4.714843-3.820313 8.535156-8.535156 8.535156-4.710938 0-8.53125-3.820313-8.53125-8.535156 0-4.710938 3.820312-8.53125 8.53125-8.53125 4.714843 0 8.535156 3.820312 8.535156 8.53125zm0 0" fill="#262626"/><path d="m418.132812 136.535156c0 4.710938-3.820312 8.53125-8.53125 8.53125-4.714843 0-8.535156-3.820312-8.535156-8.53125 0-4.714844 3.820313-8.535156 8.535156-8.535156 4.710938 0 8.53125 3.820312 8.53125 8.535156zm0 0" fill="#262626"/><path d="m418.132812 170.667969c0 4.710937-3.820312 8.53125-8.53125 8.53125-4.714843 0-8.535156-3.820313-8.535156-8.53125 0-4.714844 3.820313-8.535157 8.535156-8.535157 4.710938 0 8.53125 3.820313 8.53125 8.535157zm0 0" fill="#262626"/><path d="m418.132812 204.800781c0 4.710938-3.820312 8.53125-8.53125 8.53125-4.714843 0-8.535156-3.820312-8.535156-8.53125 0-4.714843 3.820313-8.535156 8.535156-8.535156 4.710938 0 8.53125 3.820313 8.53125 8.535156zm0 0" fill="#262626"/><path d="m418.132812 238.933594c0 4.710937-3.820312 8.53125-8.53125 8.53125-4.714843 0-8.535156-3.820313-8.535156-8.53125 0-4.714844 3.820313-8.535156 8.535156-8.535156 4.710938 0 8.53125 3.820312 8.53125 8.535156zm0 0" fill="#262626"/><path d="m418.132812 273.066406c0 4.714844-3.820312 8.535156-8.53125 8.535156-4.714843 0-8.535156-3.820312-8.535156-8.535156 0-4.710937 3.820313-8.53125 8.535156-8.53125 4.710938 0 8.53125 3.820313 8.53125 8.53125zm0 0" fill="#262626"/><path d="m418.132812 307.199219c0 4.714843-3.820312 8.535156-8.53125 8.535156-4.714843 0-8.535156-3.820313-8.535156-8.535156 0-4.710938 3.820313-8.53125 8.535156-8.53125 4.710938 0 8.53125 3.820312 8.53125 8.53125zm0 0" fill="#262626"/></svg>
