<?xml version="1.0" encoding="utf-8"?>
<!-- Generator: Adobe Illustrator 19.0.0, SVG Export Plug-In . SVG Version: 6.00 Build 0)  -->
<svg version="1.1" id="Livello_1" xmlns="http://www.w3.org/2000/svg" xmlns:xlink="http://www.w3.org/1999/xlink" x="0px" y="0px"
	 viewBox="192 -192 512 512" style="enable-background:new 192 -192 512 512;" xml:space="preserve">
<style type="text/css">
	.st0{fill:#262626;}
</style>
<path class="st0" d="M696.6-81.2c7.3-7.3,9.4-18.2,5.5-27.7c-3.9-9.5-13.2-15.7-23.5-15.7c-6.8,0-13.2,2.7-18,7.4l-24,24L456.3,87
	c-0.4,0.5-0.8,1-1,1.6c-0.2,0.2-0.4,0.4-0.6,0.7l-24,48c-1.3,2.6-1.2,5.8,0.4,8.3c1.6,2.5,4.3,4,7.2,4c1.3,0,2.6-0.3,3.8-0.9
	l48-24.1c0.3-0.1,0.4-0.4,0.7-0.6c0.6-0.3,1.1-0.6,1.6-1L696.6-81.2L696.6-81.2z M666.5-75.2l-12-12l12-12l12,12L666.5-75.2z
	 M510.4,81l-12-12L642.5-75.2l12,12L510.4,81z M486.3,81l12,12l-12,12l-12-12L486.3,81z M457.3,122.1l7.4-14.7l7.4,7.4L457.3,122.1z
	"/>
<path class="st0" d="M557.2,71.7c-4.7,0-8.5,3.8-8.5,8.5V243c0,4.7-3.8,8.5-8.5,8.5H293.9V175c0-4.7-3.8-8.5-8.5-8.5H209v-331.2
	c0-4.7,3.8-8.5,8.5-8.5h322.8c4.7,0,8.5,3.8,8.5,8.5v128.8c0,4.7,3.8,8.5,8.5,8.5c4.7,0,8.5-3.8,8.5-8.5v-128.8
	c0-14.1-11.4-25.5-25.5-25.5H217.5c-14.1,0-25.5,11.4-25.5,25.5V175c0,0.2,0.1,0.3,0.1,0.5c0,0.8,0.2,1.5,0.5,2.2
	c0.1,0.3,0.2,0.5,0.3,0.8c0.4,0.9,1,1.7,1.6,2.4l59.5,59.5c3.3,3.2,8.6,3.2,11.9-0.1c3.3-3.3,3.3-8.6,0.1-11.9L221,183.5h55.9V260
	c0,4.7,3.8,8.5,8.5,8.5h254.8c14.1,0,25.5-11.4,25.5-25.5V80.2C565.7,75.5,561.9,71.7,557.2,71.7z"/>
<path class="st0" d="M480.8-130.7c4.7,0,8.5-3.8,8.5-8.5s-3.8-8.5-8.5-8.5H276.9c-4.7,0-8.5,3.8-8.5,8.5s3.8,8.5,8.5,8.5H480.8z"/>
<path class="st0" d="M226-96.8c0,4.7,3.8,8.5,8.5,8.5h59.5c4.7,0,8.5-3.8,8.5-8.5s-3.8-8.5-8.5-8.5h-59.5
	C229.8-105.3,226-101.5,226-96.8z"/>
<path class="st0" d="M523.2-105.3H327.9c-4.7,0-8.5,3.8-8.5,8.5s3.8,8.5,8.5,8.5h195.4c4.7,0,8.5-3.8,8.5-8.5
	S527.9-105.3,523.2-105.3z"/>
<path class="st0" d="M531.7-54.3c0-4.7-3.8-8.5-8.5-8.5H234.5c-4.7,0-8.5,3.8-8.5,8.5s3.8,8.5,8.5,8.5h288.8
	C527.9-45.8,531.7-49.6,531.7-54.3z"/>
<path class="st0" d="M234.5-3.3h101.9c4.7,0,8.5-3.8,8.5-8.5s-3.8-8.5-8.5-8.5H234.5c-4.7,0-8.5,3.8-8.5,8.5S229.8-3.3,234.5-3.3z"
	/>
<path class="st0" d="M438.3-3.3c4.7,0,8.5-3.8,8.5-8.5s-3.8-8.5-8.5-8.5h-67.9c-4.7,0-8.5,3.8-8.5,8.5s3.8,8.5,8.5,8.5H438.3z"/>
<path class="st0" d="M497.8,30.6c0-4.7-3.8-8.5-8.5-8.5H234.5c-4.7,0-8.5,3.8-8.5,8.5s3.8,8.5,8.5,8.5h254.8
	C494,39.1,497.8,35.3,497.8,30.6z"/>
<path class="st0" d="M446.8,73.1c0-4.7-3.8-8.5-8.5-8.5H234.5c-4.7,0-8.5,3.8-8.5,8.5s3.8,8.5,8.5,8.5h203.8
	C443,81.6,446.8,77.8,446.8,73.1z"/>
<path class="st0" d="M421.3,107.1H234.5c-4.7,0-8.5,3.8-8.5,8.5c0,4.7,3.8,8.5,8.5,8.5h186.9c4.7,0,8.5-3.8,8.5-8.5
	C429.8,110.9,426,107.1,421.3,107.1z"/>
</svg>
